<svg width="24" height="25" viewBox="0 0 24 25" fill="none" xmlns="http://www.w3.org/2000/svg">
<path d="M21.9623 11.8129H22.7812V13.6851H21.9623V11.8129ZM20.3486 14.2332H21.1675V11.2647H20.3486V14.2332ZM18.762 15.7687H19.5809V9.72929H18.762V15.7687ZM17.2537 16.9535H18.0726V8.59974H17.2537V16.9515V16.9535ZM15.639 14.9134H16.4579V10.5845H15.639V14.9134ZM13.9986 18.189H14.8175V7.12369H13.996V18.189H13.9986ZM12.3844 19.7755H13.2033V5.72241H12.3844V19.7755ZM10.7978 17.606H11.6167V7.89193H10.7978V17.606V17.606ZM9.15637 14.8474H9.97528V10.7528H9.15637V14.8474ZM7.5698 13.8713H8.3887V11.623H7.5698V13.875V13.8713ZM5.98317 15.0741H6.80208V10.4222H5.98317V15.0756V15.0741ZM4.42214 17.326H5.24105V7.90576H4.42219V17.3276L4.42214 17.326ZM2.83556 15.8868H3.65447V9.53021H2.83556V15.8884V15.8868ZM1.21875 14.2332H2.03766V11.2647H1.21875V14.2332Z" fill="#C03EFE"/>
</svg>
